<svg xmlns="http://www.w3.org/2000/svg" viewBox="0 0 118.72 26.43"><defs><style>.cls-1{fill:#192530;}</style></defs><g id="Layer_2" data-name="Layer 2"><g id="Layer_1-2" data-name="Layer 1"><path class="cls-1" d="M45.8,18a.61.61,0,0,1-.07.28.55.55,0,0,1-.18.16,1,1,0,0,1-.26.09l-.3,0H43.83a.48.48,0,0,1-.41-.16,1.05,1.05,0,0,1-.17-.4l-.06-.78a6.06,6.06,0,0,1-.71.6,5.51,5.51,0,0,1-.85.49,5.28,5.28,0,0,1-1,.33,4.54,4.54,0,0,1-1,.11,5.85,5.85,0,0,1-3.06-.83,5.62,5.62,0,0,1-1.23-.95,5.9,5.9,0,0,1-.94-1.23,6,6,0,0,1-.62-1.45,6.39,6.39,0,0,1,0-3.25,6,6,0,0,1,.62-1.45,5.9,5.9,0,0,1,.94-1.23,6.31,6.31,0,0,1,1.23-1A6.44,6.44,0,0,1,38,6.76a6.07,6.07,0,0,1,1.61-.21,5.22,5.22,0,0,1,1.13.12,4.54,4.54,0,0,1,1,.35,4.91,4.91,0,0,1,.87.55,5.3,5.3,0,0,1,.72.7l.13-1c0-.11.06-.2.09-.28a.69.69,0,0,1,.1-.17.38.38,0,0,1,.15-.09l.24,0H45l.3,0a1.07,1.07,0,0,1,.27.09.49.49,0,0,1,.19.16.57.57,0,0,1,.07.27Zm-9.64-5.35A3.88,3.88,0,0,0,36.42,14a3.54,3.54,0,0,0,.72,1.16,3.28,3.28,0,0,0,1.09.79,3.12,3.12,0,0,0,1.37.3A3.29,3.29,0,0,0,41,16a3.38,3.38,0,0,0,1.14-.79A3.82,3.82,0,0,0,42.9,14a3.64,3.64,0,0,0,0-2.8,3.82,3.82,0,0,0-.76-1.16A3.56,3.56,0,0,0,41,9.27,3.29,3.29,0,0,0,39.6,9a3.12,3.12,0,0,0-1.37.3,3.46,3.46,0,0,0-1.09.8,3.54,3.54,0,0,0-.72,1.16A3.85,3.85,0,0,0,36.16,12.62Z"/><path class="cls-1" d="M56.33,17.68a1.51,1.51,0,0,0,0-.39c0-.15,0-.29,0-.42a8.94,8.94,0,0,1-.71.66,4.91,4.91,0,0,1-.81.53,4.27,4.27,0,0,1-2,.49,6.05,6.05,0,0,1-1.6-.21,5.73,5.73,0,0,1-1.42-.58,5.33,5.33,0,0,1-1.19-.92,6.26,6.26,0,0,1-.93-1.19,6.24,6.24,0,0,1-.59-1.43,6.07,6.07,0,0,1-.21-1.61A6.2,6.2,0,0,1,47.09,11a6.58,6.58,0,0,1,.59-1.45,6.45,6.45,0,0,1,.93-1.22,5.18,5.18,0,0,1,1.19-1,5.83,5.83,0,0,1,1.42-.62,6.05,6.05,0,0,1,1.6-.21,5,5,0,0,1,1.12.12,4,4,0,0,1,1,.36,4.78,4.78,0,0,1,.86.54,6,6,0,0,1,.73.69c0-.17.05-.33.07-.49l.06-.49a1.07,1.07,0,0,1,.16-.4.48.48,0,0,1,.41-.15h1.21a.55.55,0,0,1,.38.15.53.53,0,0,1,.16.39v9.45a6.69,6.69,0,0,1-.49,2.64,5.28,5.28,0,0,1-1.34,1.85,5.47,5.47,0,0,1-2,1.1,7.64,7.64,0,0,1-2.37.36,6.41,6.41,0,0,1-1.06-.09,7.49,7.49,0,0,1-1-.25,6.37,6.37,0,0,1-1-.4,4.87,4.87,0,0,1-.85-.53.86.86,0,0,1-.2-.18.44.44,0,0,1-.07-.26.92.92,0,0,1,0-.16.85.85,0,0,1,.1-.18l.69-1a1,1,0,0,1,.19-.18.28.28,0,0,1,.18-.06l.17,0a.44.44,0,0,1,.2.11,2.11,2.11,0,0,0,.55.33,5.05,5.05,0,0,0,.69.22,6.27,6.27,0,0,0,.71.13l.64,0a5.11,5.11,0,0,0,1.31-.17,3.77,3.77,0,0,0,1.11-.51,2.8,2.8,0,0,0,.8-.81A2.28,2.28,0,0,0,56.33,17.68Zm-6.84-5.07a3.67,3.67,0,0,0,.26,1.4,3.54,3.54,0,0,0,.72,1.16,3.46,3.46,0,0,0,1.09.8,3.22,3.22,0,0,0,1.36.29A3.38,3.38,0,0,0,54.3,16a3.76,3.76,0,0,0,1.14-.77,3.85,3.85,0,0,0,.76-1.14,3.55,3.55,0,0,0,.3-1.37v-.15a3.55,3.55,0,0,0-.3-1.37A3.85,3.85,0,0,0,55.44,10a3.61,3.61,0,0,0-1.14-.78A3.38,3.38,0,0,0,52.92,9a3.08,3.08,0,0,0-1.36.3,3.28,3.28,0,0,0-1.09.79,3.54,3.54,0,0,0-.72,1.16A3.67,3.67,0,0,0,49.49,12.61Z"/><path class="cls-1" d="M60.8,7.3A.48.48,0,0,1,61,6.89a.67.67,0,0,1,.4-.14h1.18a.45.45,0,0,1,.35.14,1.11,1.11,0,0,1,.19.34,2.85,2.85,0,0,1,.09.44,4.3,4.3,0,0,0,.07.43,4.7,4.7,0,0,1,.46-.56,3,3,0,0,1,.58-.48A2.74,2.74,0,0,1,65,6.71,3.24,3.24,0,0,1,66,6.58a5.35,5.35,0,0,1,.84.06,3.55,3.55,0,0,1,.71.19,4,4,0,0,1,.66.32c.22.14.45.29.69.47a1.64,1.64,0,0,1,.28.23.44.44,0,0,1,.11.31,1,1,0,0,1,0,.16.6.6,0,0,1-.08.16l-.76,1.21a.43.43,0,0,1-.17.13.38.38,0,0,1-.17,0,.59.59,0,0,1-.29-.07l-.55-.32a3.89,3.89,0,0,0-.5-.25,2.84,2.84,0,0,0-.49-.17A2.49,2.49,0,0,0,65.64,9a2,2,0,0,0-1.4.53A2.66,2.66,0,0,0,63.48,11v7a.5.5,0,0,1-.58.56H61.38A.5.5,0,0,1,60.8,18Z"/><path class="cls-1" d="M70,3.21a.49.49,0,0,1,.55-.56h1.56a.6.6,0,0,1,.41.14.54.54,0,0,1,.16.42V4.6a.64.64,0,0,1-.15.4.49.49,0,0,1-.41.19H70.57C70.2,5.19,70,5,70,4.6Zm0,4.1a.61.61,0,0,1,.14-.4.5.5,0,0,1,.41-.16H72.1a.52.52,0,0,1,.21,0,.76.76,0,0,1,.19.12.86.86,0,0,1,.14.18.54.54,0,0,1,0,.22V18a.5.5,0,0,1-.58.56H70.57A.5.5,0,0,1,70,18Z"/><path class="cls-1" d="M74.79,3.21a.49.49,0,0,1,.54-.56h1.56a.64.64,0,0,1,.42.14.57.57,0,0,1,.15.42V4.6a.69.69,0,0,1-.14.4.5.5,0,0,1-.42.19H75.34c-.37,0-.55-.2-.55-.59Zm0,4.1a.6.6,0,0,1,.13-.4.51.51,0,0,1,.41-.16h1.54a.52.52,0,0,1,.21,0,.76.76,0,0,1,.19.12.62.62,0,0,1,.14.18.42.42,0,0,1,0,.22V18a.5.5,0,0,1-.58.56H75.34a.49.49,0,0,1-.55-.56Z"/><path class="cls-1" d="M91.56,11.65a6.66,6.66,0,0,1-.25,1.85,6.74,6.74,0,0,1-.71,1.65,6.62,6.62,0,0,1-1.09,1.39A7,7,0,0,1,88.1,17.6a7.41,7.41,0,0,1-1.67.68,7.21,7.21,0,0,1-1.87.24H80.11a.56.56,0,0,1-.3-.08c-.09,0-.13-.15-.13-.31V5.19a.38.38,0,0,1,.43-.43h4.45a7,7,0,0,1,2.75.53,6.86,6.86,0,0,1,2.22,1.46A7,7,0,0,1,91,8.94,6.79,6.79,0,0,1,91.56,11.65ZM82.36,7.3V16h.88l1.39,0a4.33,4.33,0,0,0,3-1.31,4.17,4.17,0,0,0,.89-1.36,4.54,4.54,0,0,0,.32-1.69,4.34,4.34,0,0,0-.35-1.75,4,4,0,0,0-1-1.36,4.29,4.29,0,0,0-1.4-.87,4.69,4.69,0,0,0-1.72-.31Z"/><path class="cls-1" d="M91.18,18.18a2.89,2.89,0,0,1,.11-.35c0-.1.07-.2.1-.28l5-12.44a.63.63,0,0,1,.15-.23.47.47,0,0,1,.34-.12h1.49a.38.38,0,0,1,.32.11.9.9,0,0,1,.14.19l.31.73L104,18a.84.84,0,0,0,0,.1.45.45,0,0,1,0,.11c0,.19-.13.28-.41.28h-1.82a.58.58,0,0,1-.32-.08.75.75,0,0,1-.18-.26l-.17-.43-.35-.89c-.12-.3-.23-.6-.34-.9H94.75c-.16.43-.32.84-.47,1.22l-.39,1a.48.48,0,0,1-.48.34H91.56a.47.47,0,0,1-.28-.07.19.19,0,0,1-.11-.19S91.17,18.19,91.18,18.18Zm6.45-9.89c-.33.85-.67,1.73-1,2.65s-.66,1.79-1,2.64h3.94Z"/><path class="cls-1" d="M104.56,11.65a6.93,6.93,0,0,1,.25-1.88,7.53,7.53,0,0,1,.71-1.7,7.24,7.24,0,0,1,2.54-2.54,7.1,7.1,0,0,1,1.7-.71,6.93,6.93,0,0,1,3.76,0,7.2,7.2,0,0,1,1.69.71,7.69,7.69,0,0,1,1.44,1.11,6.9,6.9,0,0,1,1.1,1.43,7.13,7.13,0,0,1,.72,1.7,7,7,0,0,1,.25,1.89,6.83,6.83,0,0,1-.25,1.88,7.23,7.23,0,0,1-.72,1.69,6.9,6.9,0,0,1-1.1,1.43,7.24,7.24,0,0,1-1.44,1.1,6.8,6.8,0,0,1-1.69.71,7.23,7.23,0,0,1-3.77,0,6.72,6.72,0,0,1-1.7-.71,7.31,7.31,0,0,1-1.43-1.11,7.11,7.11,0,0,1-1.81-3.11A6.9,6.9,0,0,1,104.56,11.65Zm2.68,0a4.4,4.4,0,0,0,.34,1.75,4.3,4.3,0,0,0,.92,1.42,4.67,4.67,0,0,0,1.39,1,4.4,4.4,0,0,0,1.74.35,4.31,4.31,0,0,0,1.73-.35,4.71,4.71,0,0,0,1.4-1,4.49,4.49,0,0,0,.93-1.42,4.56,4.56,0,0,0-.93-4.91,4.37,4.37,0,0,0-1.4-1,4.15,4.15,0,0,0-1.73-.35,4.23,4.23,0,0,0-1.74.35,4.33,4.33,0,0,0-1.39,1,4.56,4.56,0,0,0-1.26,3.16Z"/><path class="cls-1" d="M25.87,6.05A.85.85,0,0,1,25.56,6L14.19,1.74A.9.9,0,1,1,14.82.06L26.19,4.31a.9.9,0,0,1-.32,1.74Z"/><path class="cls-1" d="M14.13,26.34a.9.9,0,0,1-.9-.9l0-14.64a.9.9,0,0,1,.9-.9h0a.9.9,0,0,1,.9.9l0,14.64a.9.9,0,0,1-.9.9Z"/><path class="cls-1" d="M4.68,8.46a.87.87,0,0,1-.32-.06L.58,7a.9.9,0,0,1,.64-1.68L5,6.72a.9.9,0,0,1-.32,1.74Z"/><path class="cls-1" d="M.9,20a.9.9,0,0,1-.9-.9v-13a.9.9,0,1,1,1.8,0v13A.9.9,0,0,1,.9,20Z"/><path class="cls-1" d="M4.68,13.17a.9.9,0,0,1-.9-.9V7.56a.9.9,0,1,1,1.8,0v4.71A.9.9,0,0,1,4.68,13.17Z"/><path class="cls-1" d="M9.71,15a.9.9,0,0,1-.9-.9V9.39a.9.9,0,0,1,1.8,0v4.72A.9.9,0,0,1,9.71,15Z"/><path class="cls-1" d="M14.08,26.34a.89.89,0,0,1-.39-.09L.51,19.91a.9.9,0,0,1,.78-1.63l13.18,6.35a.9.9,0,0,1,.42,1.2A.91.91,0,0,1,14.08,26.34Z"/><path class="cls-1" d="M9.71,15A.89.89,0,0,1,9.4,15l-5-1.83A.9.9,0,1,1,5,11.43l5,1.83a.9.9,0,0,1,.54,1.15A.91.91,0,0,1,9.71,15Z"/><path class="cls-1" d="M.9,7a.9.9,0,0,1-.84-.58A.89.89,0,0,1,.58,5.27L14.18.06a.9.9,0,0,1,1.17.52.91.91,0,0,1-.52,1.16L1.22,7A.87.87,0,0,1,.9,7Z"/><path class="cls-1" d="M14.09,11.7a.89.89,0,0,1-.84-.57A.9.9,0,0,1,13.76,10L25.54,5.28A.9.9,0,0,1,26.21,7L14.42,11.64A1,1,0,0,1,14.09,11.7Z"/><path class="cls-1" d="M4.68,8.46a.9.9,0,0,1-.33-1.74L18,1.48a.9.9,0,0,1,.64,1.68L5,8.4A.91.91,0,0,1,4.68,8.46Z"/><path class="cls-1" d="M9.71,10.29a.9.9,0,0,1-.33-1.73L22.1,3.48a.9.9,0,0,1,.67,1.67L10.05,10.23A1,1,0,0,1,9.71,10.29Z"/><path class="cls-1" d="M14.09,11.7a.9.9,0,0,1-.28,0L9.44,10.25A.9.9,0,1,1,10,8.54l4.37,1.4a.9.9,0,0,1-.27,1.76Z"/><path class="cls-1" d="M14.06,26.43a.9.9,0,0,1-.84-.58.89.89,0,0,1,.52-1.16L23.27,21A2.71,2.71,0,0,0,25,18.51V5.22a.9.9,0,0,1,1.8,0V18.51a4.53,4.53,0,0,1-2.88,4.2l-9.54,3.66A.87.87,0,0,1,14.06,26.43Z"/></g></g></svg>