<svg xmlns="http://www.w3.org/2000/svg" viewBox="0 0 26.8 26.43"><defs><style>.cls-1{fill:#ed9200;}</style></defs><g id="Layer_2" data-name="Layer 2"><g id="Layer_1-2" data-name="Layer 1"><path class="cls-1" d="M25.87,6.05A.85.85,0,0,1,25.56,6L14.19,1.74A.9.9,0,1,1,14.82.06L26.19,4.31a.9.9,0,0,1-.32,1.74Z"/><path class="cls-1" d="M14.13,26.34a.9.9,0,0,1-.9-.9l0-14.64a.9.9,0,0,1,.9-.9h0a.9.9,0,0,1,.9.9l0,14.64a.9.9,0,0,1-.9.9Z"/><path class="cls-1" d="M4.68,8.46a.87.87,0,0,1-.32-.06L.58,7a.9.9,0,0,1,.64-1.68L5,6.72a.9.9,0,0,1-.32,1.74Z"/><path class="cls-1" d="M.9,20a.9.9,0,0,1-.9-.9v-13a.9.9,0,1,1,1.8,0v13A.9.9,0,0,1,.9,20Z"/><path class="cls-1" d="M4.68,13.17a.9.9,0,0,1-.9-.9V7.56a.9.9,0,1,1,1.8,0v4.71A.9.9,0,0,1,4.68,13.17Z"/><path class="cls-1" d="M9.71,15a.9.9,0,0,1-.9-.9V9.39a.9.9,0,0,1,1.8,0v4.72A.9.9,0,0,1,9.71,15Z"/><path class="cls-1" d="M14.08,26.34a.89.89,0,0,1-.39-.09L.51,19.91a.9.9,0,0,1,.78-1.63l13.18,6.35a.9.9,0,0,1,.42,1.2A.91.91,0,0,1,14.08,26.34Z"/><path class="cls-1" d="M9.71,15A.89.89,0,0,1,9.4,15l-5-1.83A.9.9,0,1,1,5,11.43l5,1.83a.9.9,0,0,1,.54,1.15A.91.91,0,0,1,9.71,15Z"/><path class="cls-1" d="M.9,7a.9.9,0,0,1-.84-.58A.89.89,0,0,1,.58,5.27L14.18.06a.9.9,0,0,1,1.17.52.91.91,0,0,1-.52,1.16L1.22,7A.87.87,0,0,1,.9,7Z"/><path class="cls-1" d="M14.09,11.7a.89.89,0,0,1-.84-.57A.9.9,0,0,1,13.76,10L25.54,5.28A.9.9,0,0,1,26.21,7L14.42,11.64A1,1,0,0,1,14.09,11.7Z"/><path class="cls-1" d="M4.68,8.46a.9.9,0,0,1-.33-1.74L18,1.48a.9.9,0,0,1,.64,1.68L5,8.4A.91.91,0,0,1,4.68,8.46Z"/><path class="cls-1" d="M9.71,10.29a.9.9,0,0,1-.33-1.73L22.1,3.48a.9.9,0,0,1,.67,1.67L10.05,10.23A1,1,0,0,1,9.71,10.29Z"/><path class="cls-1" d="M14.09,11.7a.9.9,0,0,1-.28,0L9.44,10.25A.9.9,0,1,1,10,8.54l4.37,1.4a.9.9,0,0,1-.27,1.76Z"/><path class="cls-1" d="M14.06,26.43a.9.9,0,0,1-.84-.58.89.89,0,0,1,.52-1.16L23.27,21A2.71,2.71,0,0,0,25,18.51V5.22a.9.9,0,0,1,1.8,0V18.51a4.53,4.53,0,0,1-2.88,4.2l-9.54,3.66A.87.87,0,0,1,14.06,26.43Z"/></g></g></svg>